<svg class="w-6 h-6" width="24" height="24" viewBox="0 0 24 24" fill="none" xmlns="http://www.w3.org/2000/svg"><path d="M7 6V2C7 1.44772 7.44772 1 8 1C8.55228 1 9 1.44772 9 2V6C9 6.55228 8.55228 7 8 7C7.44772 7 7 6.55228 7 6Z" fill="#686583" style="fill-opacity:1;"/><path d="M15 6V2C15 1.44772 15.4477 1 16 1C16.5523 1 17 1.44772 17 2V6C17 6.55228 16.5523 7 16 7C15.4477 7 15 6.55228 15 6Z" fill="#686583" style="fill-opacity:1;"/><path d="M20 6C20 5.44772 19.5523 5 19 5H5C4.44772 5 4 5.44772 4 6V20C4 20.5523 4.44772 21 5 21H19C19.5523 21 20 20.5523 20 20V6ZM22 20C22 21.6569 20.6569 23 19 23H5C3.34315 23 2 21.6569 2 20V6C2 4.34315 3.34315 3 5 3H19C20.6569 3 22 4.34315 22 6V20Z" fill="#686583" style="fill-opacity:1;"/><path d="M21 9C21.5523 9 22 9.44772 22 10C22 10.5523 21.5523 11 21 11H3C2.44772 11 2 10.5523 2 10C2 9.44772 2.44772 9 3 9H21Z" fill="#686583" style="fill-opacity:1;"/><path d="M8.00977 13L8.1123 13.0049C8.61655 13.0561 9.00977 13.4822 9.00977 14C9.00977 14.5178 8.61655 14.9439 8.1123 14.9951L8.00977 15H8C7.44772 15 7 14.5523 7 14C7 13.4477 7.44772 13 8 13H8.00977Z" fill="#686583" style="fill-opacity:1;"/><path d="M12.0098 13L12.1123 13.0049C12.6165 13.0561 13.0098 13.4822 13.0098 14C13.0098 14.5178 12.6165 14.9439 12.1123 14.9951L12.0098 15H12C11.4477 15 11 14.5523 11 14C11 13.4477 11.4477 13 12 13H12.0098Z" fill="#686583" style="fill-opacity:1;"/><path d="M16.0098 13L16.1123 13.0049C16.6165 13.0561 17.0098 13.4822 17.0098 14C17.0098 14.5178 16.6165 14.9439 16.1123 14.9951L16.0098 15H16C15.4477 15 15 14.5523 15 14C15 13.4477 15.4477 13 16 13H16.0098Z" fill="#686583" style="fill-opacity:1;"/><path d="M8.00977 17L8.1123 17.0049C8.61655 17.0561 9.00977 17.4822 9.00977 18C9.00977 18.5178 8.61655 18.9439 8.1123 18.9951L8.00977 19H8C7.44772 19 7 18.5523 7 18C7 17.4477 7.44772 17 8 17H8.00977Z" fill="#686583" style="fill-opacity:1;"/><path d="M12.0098 17L12.1123 17.0049C12.6165 17.0561 13.0098 17.4822 13.0098 18C13.0098 18.5178 12.6165 18.9439 12.1123 18.9951L12.0098 19H12C11.4477 19 11 18.5523 11 18C11 17.4477 11.4477 17 12 17H12.0098Z" fill="#686583" style="fill-opacity:1;"/><path d="M16.0098 17L16.1123 17.0049C16.6165 17.0561 17.0098 17.4822 17.0098 18C17.0098 18.5178 16.6165 18.9439 16.1123 18.9951L16.0098 19H16C15.4477 19 15 18.5523 15 18C15 17.4477 15.4477 17 16 17H16.0098Z" fill="#686583" style="fill-opacity:1;"/></svg>