<svg class="w-6 h-6" width="24" height="24" viewBox="0 0 24 24" fill="none" xmlns="http://www.w3.org/2000/svg"><path d="M20 12C20 9.87827 19.1575 7.84306 17.6572 6.34277C16.1574 4.84294 14.123 4.00052 12.0019 4C9.7446 4.00896 7.57806 4.88999 5.95506 6.45898L3.70702 8.70703C3.31649 9.09756 2.68348 9.09756 2.29295 8.70703C1.90243 8.31651 1.90243 7.68349 2.29295 7.29297L4.55272 5.0332L4.94627 4.66992C6.89241 2.96203 9.39523 2.00982 11.9961 2H12L12.4961 2.0127C14.9676 2.13537 17.3132 3.17061 19.0713 4.92871C20.9466 6.80407 22 9.34784 22 12C22 12.5523 21.5523 13 21 13C20.4477 13 20 12.5523 20 12Z" fill="#686583" style="fill-opacity:1;"/><path d="M2 3C2 2.44772 2.44772 2 3 2C3.55228 2 4 2.44772 4 3V7H8C8.55228 7 9 7.44772 9 8C9 8.55228 8.55228 9 8 9H3C2.44772 9 2 8.55228 2 8V3Z" fill="#686583" style="fill-opacity:1;"/><path d="M2 12C2 11.4477 2.44772 11 3 11C3.55228 11 4 11.4477 4 12C4 14.1217 4.84248 16.1569 6.34277 17.6572C7.84237 19.1568 9.8764 19.9982 11.9971 19.999C14.2548 19.9903 16.4217 19.1102 18.0449 17.541L20.293 15.293C20.6835 14.9024 21.3165 14.9024 21.707 15.293C22.0976 15.6835 22.0976 16.3165 21.707 16.707L19.4473 18.9668L19.0537 19.3301C17.1076 21.038 14.6048 21.9902 12.0039 22H12C9.34784 22 6.80407 20.9467 4.92871 19.0713C3.05335 17.1959 2 14.6522 2 12Z" fill="#686583" style="fill-opacity:1;"/><path d="M20 21V17H16C15.4477 17 15 16.5523 15 16C15 15.4477 15.4477 15 16 15H21L21.1025 15.0049C21.6067 15.0562 22 15.4823 22 16V21C22 21.5523 21.5523 22 21 22C20.4477 22 20 21.5523 20 21Z" fill="#686583" style="fill-opacity:1;"/></svg>