<svg class="w-6 h-6" width="24" height="24" viewBox="0 0 24 24" fill="none" xmlns="http://www.w3.org/2000/svg"><path d="M3 20V4C3 3.20435 3.3163 2.44152 3.87891 1.87891C4.44152 1.3163 5.20435 1 6 1H15L15.0986 1.00488C15.3276 1.02757 15.5429 1.12883 15.707 1.29297L20.707 6.29297C20.8946 6.48051 21 6.73478 21 7V20C21 20.7957 20.6837 21.5585 20.1211 22.1211C19.5585 22.6837 18.7957 23 18 23H6C5.20435 23 4.44152 22.6837 3.87891 22.1211C3.3163 21.5585 3 20.7956 3 20ZM5 20C5 20.2652 5.10543 20.5195 5.29297 20.707C5.48051 20.8946 5.73478 21 6 21H18C18.2652 21 18.5195 20.8946 18.707 20.707C18.8946 20.5195 19 20.2652 19 20V7.41406L14.5859 3H6C5.73478 3 5.48051 3.10543 5.29297 3.29297C5.10543 3.48051 5 3.73478 5 4V20Z" fill="#686583" style="fill-opacity:1;"/><path d="M13 6V2C13 1.44772 13.4477 1 14 1C14.5523 1 15 1.44772 15 2V6C15 6.26522 15.1054 6.51949 15.293 6.70703C15.4805 6.89457 15.7348 7 16 7H20C20.5523 7 21 7.44772 21 8C21 8.55228 20.5523 9 20 9H16C15.2044 9 14.4415 8.6837 13.8789 8.12109C13.3163 7.55848 13 6.79565 13 6Z" fill="#686583" style="fill-opacity:1;"/><path d="M11 18V12C11 11.4477 11.4477 11 12 11C12.5523 11 13 11.4477 13 12V18C13 18.5523 12.5523 19 12 19C11.4477 19 11 18.5523 11 18Z" fill="#686583" style="fill-opacity:1;"/><path d="M11.3691 11.2246C11.7619 10.9043 12.3409 10.9269 12.707 11.293L15.707 14.293L15.7754 14.3692C16.0957 14.7619 16.0731 15.3409 15.707 15.707C15.3409 16.0732 14.7619 16.0958 14.3691 15.7754L14.293 15.707L12 13.4141L9.70703 15.707C9.31651 16.0976 8.68349 16.0976 8.29297 15.707C7.90245 15.3165 7.90245 14.6835 8.29297 14.293L11.293 11.293L11.3691 11.2246Z" fill="#686583" style="fill-opacity:1;"/></svg>