<svg class="w-6 h-6" width="24" height="24" viewBox="0 0 24 24" fill="none" xmlns="http://www.w3.org/2000/svg"><path d="M22 11C22.5523 11 23 11.4477 23 12C23 12.5523 22.5523 13 22 13H2C1.44772 13 1 12.5523 1 12C1 11.4477 1.44772 11 2 11H22Z" fill="#686583" style="fill-opacity:1;"/><path d="M21 12.2363L17.6562 5.55762L17.6543 5.55469C17.5715 5.38831 17.444 5.24837 17.2861 5.15039C17.1677 5.07694 17.0355 5.02907 16.8984 5.00977L16.7598 5H7.24023C7.0543 5.00015 6.87189 5.0524 6.71387 5.15039C6.55597 5.24837 6.42845 5.38831 6.3457 5.55469L6.34375 5.55762L3 12.2363V18C3 18.2652 3.10543 18.5195 3.29297 18.707C3.48051 18.8946 3.73478 19 4 19H20C20.2652 19 20.5195 18.8946 20.707 18.707C20.8946 18.5195 21 18.2652 21 18V12.2363ZM23 18C23 18.7957 22.6837 19.5585 22.1211 20.1211C21.5585 20.6837 20.7957 21 20 21H4C3.20435 21 2.44152 20.6837 1.87891 20.1211C1.3163 19.5585 1 18.7956 1 18V12C1 11.8448 1.03604 11.6916 1.10547 11.5527L4.55566 4.66211C4.80407 4.16352 5.18671 3.74378 5.66016 3.4502C6.13438 3.15617 6.68128 3.00034 7.23926 3H16.7607L16.9688 3.00781C17.4539 3.04183 17.9247 3.19282 18.3398 3.4502C18.8132 3.74371 19.195 4.16369 19.4434 4.66211H19.4443L22.8945 11.5527L22.9404 11.6592C22.9799 11.7681 23 11.8835 23 12V18Z" fill="#686583" style="fill-opacity:1;"/><path d="M6.00977 15L6.1123 15.0049C6.61655 15.0561 7.00977 15.4822 7.00977 16C7.00977 16.5178 6.61655 16.9439 6.1123 16.9951L6.00977 17H6C5.44772 17 5 16.5523 5 16C5 15.4477 5.44772 15 6 15H6.00977Z" fill="#686583" style="fill-opacity:1;"/><path d="M10.0098 15L10.1123 15.0049C10.6165 15.0561 11.0098 15.4822 11.0098 16C11.0098 16.5178 10.6165 16.9439 10.1123 16.9951L10.0098 17H10C9.44772 17 9 16.5523 9 16C9 15.4477 9.44772 15 10 15H10.0098Z" fill="#686583" style="fill-opacity:1;"/></svg>